<?xml version="1.0" encoding="UTF-8" standalone="no"?>
<!DOCTYPE svg PUBLIC "-//W3C//DTD SVG 1.1//EN" "http://www.w3.org/Graphics/SVG/1.1/DTD/svg11.dtd">
<!-- Generated by graphviz version 2.40.1 (20161225.0304)
 -->
<!-- Title: ParallelAsync Pages: 1 -->
<svg width="376pt" height="281pt" viewBox="0.00 0.00 376.00 280.80" xmlns="http://www.w3.org/2000/svg" xmlns:xlink="http://www.w3.org/1999/xlink">
<g id="graph0" class="graph" transform="scale(1 1) rotate(0) translate(4 276.8)">
<title>ParallelAsync</title>
<polygon fill="#ffffff" stroke="transparent" points="-4,4 -4,-276.8 372,-276.8 372,4 -4,4"/>
<g id="clust1" class="cluster">
<title>cluster_0</title>
<polygon fill="none" stroke="#000000" points="8,-8 8,-156.8 120,-156.8 120,-8 8,-8"/>
<text text-anchor="middle" x="64" y="-140.2" font-family="Arial" font-size="14.00" fill="#000000">Thread</text>
</g>
<g id="clust2" class="cluster">
<title>cluster_1</title>
<polygon fill="none" stroke="#000000" points="128,-8 128,-156.8 240,-156.8 240,-8 128,-8"/>
<text text-anchor="middle" x="184" y="-140.2" font-family="Arial" font-size="14.00" fill="#000000">Thread</text>
</g>
<g id="clust3" class="cluster">
<title>cluster_2</title>
<polygon fill="none" stroke="#000000" points="248,-8 248,-156.8 360,-156.8 360,-8 248,-8"/>
<text text-anchor="middle" x="304" y="-140.2" font-family="Arial" font-size="14.00" fill="#000000">Thread</text>
</g>
<!-- caller -->
<g id="node1" class="node">
<title>caller</title>
<polygon fill="#ffa500" stroke="#ffa500" points="211,-272.8 157,-272.8 157,-236.8 211,-236.8 211,-272.8"/>
<text text-anchor="middle" x="184" y="-250.6" font-family="Arial" font-size="14.00" fill="#000000">Work</text>
</g>
<!-- global_queue -->
<g id="node2" class="node">
<title>global_queue</title>
<polygon fill="#add8e6" stroke="#add8e6" points="235.3638,-200.8 132.6362,-200.8 132.6362,-164.8 235.3638,-164.8 235.3638,-200.8"/>
<text text-anchor="middle" x="184" y="-178.6" font-family="Arial" font-size="14.00" fill="#000000">Global Queue</text>
</g>
<!-- caller&#45;&gt;global_queue -->
<g id="edge1" class="edge">
<title>caller-&gt;global_queue</title>
<path fill="none" stroke="#000000" d="M184,-236.6314C184,-228.931 184,-219.7743 184,-211.2166"/>
<polygon fill="#000000" stroke="#000000" points="187.5001,-211.2132 184,-201.2133 180.5001,-211.2133 187.5001,-211.2132"/>
</g>
<!-- worker1_run -->
<g id="node3" class="node">
<title>worker1_run</title>
<polygon fill="#98fb98" stroke="#98fb98" points="98.1263,-124 29.8737,-124 29.8737,-88 98.1263,-88 98.1263,-124"/>
<text text-anchor="middle" x="64" y="-101.8" font-family="Arial" font-size="14.00" fill="#000000">Running</text>
</g>
<!-- global_queue&#45;&gt;worker1_run -->
<g id="edge2" class="edge">
<title>global_queue-&gt;worker1_run</title>
<path fill="none" stroke="#000000" d="M138.3882,-164.736C133.4236,-162.2727 128.5328,-159.6149 124,-156.8 112.1062,-149.4137 100.1106,-139.7905 90.0044,-130.9088"/>
<polygon fill="#000000" stroke="#000000" points="92.1135,-128.0979 82.3425,-124.0018 87.4265,-133.2972 92.1135,-128.0979"/>
</g>
<!-- worker2_run -->
<g id="node4" class="node">
<title>worker2_run</title>
<polygon fill="#98fb98" stroke="#98fb98" points="218.1263,-124 149.8737,-124 149.8737,-88 218.1263,-88 218.1263,-124"/>
<text text-anchor="middle" x="184" y="-101.8" font-family="Arial" font-size="14.00" fill="#000000">Running</text>
</g>
<!-- global_queue&#45;&gt;worker2_run -->
<g id="edge3" class="edge">
<title>global_queue-&gt;worker2_run</title>
<path fill="none" stroke="#000000" d="M184,-164.5995C184,-155.5132 184,-144.3176 184,-134.1549"/>
<polygon fill="#000000" stroke="#000000" points="187.5001,-134.0698 184,-124.0699 180.5001,-134.0699 187.5001,-134.0698"/>
</g>
<!-- worker3_run -->
<g id="node5" class="node">
<title>worker3_run</title>
<polygon fill="#98fb98" stroke="#98fb98" points="338.1263,-124 269.8737,-124 269.8737,-88 338.1263,-88 338.1263,-124"/>
<text text-anchor="middle" x="304" y="-101.8" font-family="Arial" font-size="14.00" fill="#000000">Running</text>
</g>
<!-- global_queue&#45;&gt;worker3_run -->
<g id="edge4" class="edge">
<title>global_queue-&gt;worker3_run</title>
<path fill="none" stroke="#000000" d="M229.6118,-164.736C234.5764,-162.2727 239.4672,-159.6149 244,-156.8 255.8938,-149.4137 267.8894,-139.7905 277.9956,-130.9088"/>
<polygon fill="#000000" stroke="#000000" points="280.5735,-133.2972 285.6575,-124.0018 275.8865,-128.0979 280.5735,-133.2972"/>
</g>
<!-- worker1_queue -->
<g id="node7" class="node">
<title>worker1_queue</title>
<polygon fill="#add8e6" stroke="#add8e6" points="111.8667,-52 16.1333,-52 16.1333,-16 111.8667,-16 111.8667,-52"/>
<text text-anchor="middle" x="64" y="-29.8" font-family="Arial" font-size="14.00" fill="#000000">Local Queue</text>
</g>
<!-- worker1_run&#45;&gt;worker1_queue -->
<g id="edge7" class="edge">
<title>worker1_run-&gt;worker1_queue</title>
<path fill="none" stroke="#000000" d="M58.0476,-87.8314C57.2972,-80.131 57.0763,-70.9743 57.3849,-62.4166"/>
<polygon fill="#000000" stroke="#000000" points="60.8792,-62.6161 58.024,-52.4133 53.8935,-62.1697 60.8792,-62.6161"/>
</g>
<!-- worker2_queue -->
<g id="node6" class="node">
<title>worker2_queue</title>
<polygon fill="#add8e6" stroke="#add8e6" points="231.8667,-52 136.1333,-52 136.1333,-16 231.8667,-16 231.8667,-52"/>
<text text-anchor="middle" x="184" y="-29.8" font-family="Arial" font-size="14.00" fill="#000000">Local Queue</text>
</g>
<!-- worker2_run&#45;&gt;worker2_queue -->
<g id="edge9" class="edge">
<title>worker2_run-&gt;worker2_queue</title>
<path fill="none" stroke="#000000" d="M178.0476,-87.8314C177.2972,-80.131 177.0763,-70.9743 177.3849,-62.4166"/>
<polygon fill="#000000" stroke="#000000" points="180.8792,-62.6161 178.024,-52.4133 173.8935,-62.1697 180.8792,-62.6161"/>
</g>
<!-- worker3_queue -->
<g id="node8" class="node">
<title>worker3_queue</title>
<polygon fill="#add8e6" stroke="#add8e6" points="351.8667,-52 256.1333,-52 256.1333,-16 351.8667,-16 351.8667,-52"/>
<text text-anchor="middle" x="304" y="-29.8" font-family="Arial" font-size="14.00" fill="#000000">Local Queue</text>
</g>
<!-- worker3_run&#45;&gt;worker3_queue -->
<g id="edge11" class="edge">
<title>worker3_run-&gt;worker3_queue</title>
<path fill="none" stroke="#000000" d="M298.0476,-87.8314C297.2972,-80.131 297.0763,-70.9743 297.3849,-62.4166"/>
<polygon fill="#000000" stroke="#000000" points="300.8792,-62.6161 298.024,-52.4133 293.8935,-62.1697 300.8792,-62.6161"/>
</g>
<!-- worker2_queue&#45;&gt;worker1_run -->
<g id="edge5" class="edge">
<title>worker2_queue-&gt;worker1_run</title>
<path fill="none" stroke="#000000" stroke-dasharray="5,2" d="M153.7286,-52.1628C138.3813,-61.3712 119.5615,-72.6631 103.1281,-82.5232"/>
<polygon fill="#000000" stroke="#000000" points="101.0553,-79.6851 94.2811,-87.8314 104.6568,-85.6876 101.0553,-79.6851"/>
<text text-anchor="middle" x="86.4463" y="-82.4314" font-family="Arial" font-size="6.00" fill="#000000">steals</text>
<text text-anchor="middle" x="86.4463" y="-75.2314" font-family="Arial" font-size="6.00" fill="#000000">work</text>
</g>
<!-- worker2_queue&#45;&gt;worker2_run -->
<g id="edge8" class="edge">
<title>worker2_queue-&gt;worker2_run</title>
<path fill="none" stroke="#000000" d="M189.976,-52.4133C190.7071,-60.0593 190.9203,-69.1084 190.6155,-77.5726"/>
<polygon fill="#000000" stroke="#000000" points="187.1048,-77.6264 189.9524,-87.8314 194.0902,-78.078 187.1048,-77.6264"/>
</g>
<!-- worker1_queue&#45;&gt;worker1_run -->
<g id="edge6" class="edge">
<title>worker1_queue-&gt;worker1_run</title>
<path fill="none" stroke="#000000" d="M69.976,-52.4133C70.7071,-60.0593 70.9203,-69.1084 70.6155,-77.5726"/>
<polygon fill="#000000" stroke="#000000" points="67.1048,-77.6264 69.9524,-87.8314 74.0902,-78.078 67.1048,-77.6264"/>
</g>
<!-- worker3_queue&#45;&gt;worker3_run -->
<g id="edge10" class="edge">
<title>worker3_queue-&gt;worker3_run</title>
<path fill="none" stroke="#000000" d="M309.976,-52.4133C310.7071,-60.0593 310.9203,-69.1084 310.6155,-77.5726"/>
<polygon fill="#000000" stroke="#000000" points="307.1048,-77.6264 309.9524,-87.8314 314.0902,-78.078 307.1048,-77.6264"/>
</g>
</g>
</svg>