<?xml version="1.0" encoding="UTF-8" standalone="no"?>
<!DOCTYPE svg PUBLIC "-//W3C//DTD SVG 1.1//EN" "http://www.w3.org/Graphics/SVG/1.1/DTD/svg11.dtd">
<!-- Generated by graphviz version 2.40.1 (20161225.0304)
 -->
<!-- Title: ExecutionFlow Pages: 1 -->
<svg width="731pt" height="311pt" viewBox="0.00 0.00 731.21 311.31" xmlns="http://www.w3.org/2000/svg" xmlns:xlink="http://www.w3.org/1999/xlink">
<g id="graph0" class="graph" transform="scale(1 1) rotate(0) translate(4 307.3104)">
<title>ExecutionFlow</title>
<polygon fill="#ffffff" stroke="transparent" points="-4,4 -4,-307.3104 727.2146,-307.3104 727.2146,4 -4,4"/>
<g id="clust1" class="cluster">
<title>cluster_0</title>
<polygon fill="none" stroke="#000000" points="83,-8.3104 83,-295.3104 715.2146,-295.3104 715.2146,-8.3104 83,-8.3104"/>
<text text-anchor="middle" x="399.1073" y="-278.7104" font-family="Arial" font-size="14.00" fill="#000000">get_numbers()</text>
</g>
<!-- caller -->
<g id="node1" class="node">
<title>caller</title>
<polygon fill="#d3d3d3" stroke="#000000" points="54,-140.3104 0,-140.3104 0,-104.3104 54,-104.3104 54,-140.3104"/>
<text text-anchor="middle" x="27" y="-118.1104" font-family="Arial" font-size="14.00" fill="#000000">caller</text>
</g>
<!-- get_numbers -->
<g id="node2" class="node">
<title>get_numbers</title>
<polygon fill="#d3d3d3" stroke="#000000" points="188.5355,-140.3104 91.1545,-140.3104 91.1545,-104.3104 188.5355,-104.3104 188.5355,-140.3104"/>
<text text-anchor="middle" x="139.845" y="-118.1104" font-family="Arial" font-size="14.00" fill="#000000">get_numbers</text>
</g>
<!-- caller&#45;&gt;get_numbers -->
<g id="edge1" class="edge">
<title>caller-&gt;get_numbers</title>
<path fill="none" stroke="#000000" d="M54.0292,-122.3104C62.1694,-122.3104 71.4422,-122.3104 80.8111,-122.3104"/>
<polygon fill="#000000" stroke="#000000" points="80.9662,-125.8105 90.9661,-122.3104 80.9661,-118.8105 80.9662,-125.8105"/>
</g>
<!-- get_number1 -->
<g id="node4" class="node">
<title>get_number1</title>
<polygon fill="#d3d3d3" stroke="#000000" points="371.3809,-52.3104 263.7929,-52.3104 263.7929,-16.3104 371.3809,-16.3104 371.3809,-52.3104"/>
<text text-anchor="middle" x="317.5869" y="-30.1104" font-family="Arial" font-size="14.00" fill="#000000">get_number(1)</text>
</g>
<!-- get_numbers&#45;&gt;get_number1 -->
<g id="edge3" class="edge">
<title>get_numbers-&gt;get_number1</title>
<path fill="none" stroke="#000000" d="M176.2426,-104.29C203.8279,-90.6325 241.9218,-71.7722 271.6124,-57.0724"/>
<polygon fill="#000000" stroke="#000000" points="273.5241,-60.0314 280.933,-52.4578 270.4182,-53.7582 273.5241,-60.0314"/>
</g>
<!-- get_number2 -->
<g id="node5" class="node">
<title>get_number2</title>
<polygon fill="#d3d3d3" stroke="#000000" points="371.3809,-140.3104 263.7929,-140.3104 263.7929,-104.3104 371.3809,-104.3104 371.3809,-140.3104"/>
<text text-anchor="middle" x="317.5869" y="-118.1104" font-family="Arial" font-size="14.00" fill="#000000">get_number(2)</text>
</g>
<!-- get_numbers&#45;&gt;get_number2 -->
<g id="edge4" class="edge">
<title>get_numbers-&gt;get_number2</title>
<path fill="none" stroke="#000000" d="M188.8843,-122.3104C208.8412,-122.3104 232.177,-122.3104 253.4565,-122.3104"/>
<polygon fill="#000000" stroke="#000000" points="253.7139,-125.8105 263.7139,-122.3104 253.7138,-118.8105 253.7139,-125.8105"/>
</g>
<!-- get_number3 -->
<g id="node6" class="node">
<title>get_number3</title>
<polygon fill="#d3d3d3" stroke="#000000" points="371.3809,-228.3104 263.7929,-228.3104 263.7929,-192.3104 371.3809,-192.3104 371.3809,-228.3104"/>
<text text-anchor="middle" x="317.5869" y="-206.1104" font-family="Arial" font-size="14.00" fill="#000000">get_number(3)</text>
</g>
<!-- get_numbers&#45;&gt;get_number3 -->
<g id="edge5" class="edge">
<title>get_numbers-&gt;get_number3</title>
<path fill="none" stroke="#000000" d="M176.2426,-140.3309C203.8279,-153.9884 241.9218,-172.8487 271.6124,-187.5485"/>
<polygon fill="#000000" stroke="#000000" points="270.4182,-190.8627 280.933,-192.1631 273.5241,-184.5894 270.4182,-190.8627"/>
</g>
<!-- return -->
<g id="node3" class="node">
<title>return</title>
<polygon fill="#98fb98" stroke="#98fb98" points="706.9892,-140.3104 612.893,-140.3104 612.893,-104.3104 706.9892,-104.3104 706.9892,-140.3104"/>
<text text-anchor="middle" x="659.9411" y="-118.1104" font-family="Arial" font-size="14.00" fill="#000000">return list(...)</text>
</g>
<!-- return&#45;&gt;caller -->
<g id="edge2" class="edge">
<title>return-&gt;caller</title>
<path fill="none" stroke="#000000" stroke-dasharray="5,2" d="M632.3597,-104.1965C568.2586,-64.333 404.0049,24.9724 263.69,-7.3104 187.3064,-24.8843 106.9994,-70.5525 62.3332,-98.7664"/>
<polygon fill="#000000" stroke="#000000" points="60.4293,-95.8294 53.8869,-104.1629 64.1982,-101.7282 60.4293,-95.8294"/>
</g>
<!-- get_number1&#45;&gt;get_number1 -->
<g id="edge6" class="edge">
<title>get_number1-&gt;get_number1</title>
<path fill="none" stroke="#000000" d="M304.5615,-52.4631C302.5576,-61.8495 306.8994,-70.3104 317.5869,-70.3104 324.0996,-70.3104 328.2559,-67.1686 330.0558,-62.59"/>
<polygon fill="#000000" stroke="#000000" points="333.5582,-62.6402 330.6123,-52.4631 326.5688,-62.256 333.5582,-62.6402"/>
<text text-anchor="middle" x="317.5869" y="-74.5104" font-family="Times,serif" font-size="14.00" fill="#000000">next()</text>
</g>
<!-- list -->
<g id="node7" class="node">
<title>list</title>
<polygon fill="#d3d3d3" stroke="#000000" points="537.7161,-140.3104 483.5223,-140.3104 483.5223,-104.3104 537.7161,-104.3104 537.7161,-140.3104"/>
<text text-anchor="middle" x="510.6192" y="-118.1104" font-family="Arial" font-size="14.00" fill="#000000">list(...)</text>
</g>
<!-- get_number1&#45;&gt;list -->
<g id="edge9" class="edge">
<title>get_number1-&gt;list</title>
<path fill="none" stroke="#000000" d="M357.1157,-52.3309C391.4495,-67.9831 440.7729,-90.4687 474.1698,-105.6938"/>
<polygon fill="#000000" stroke="#000000" points="473.0136,-109.0132 483.5645,-109.9767 475.9173,-102.6438 473.0136,-109.0132"/>
<text text-anchor="middle" x="427.5273" y="-96.5104" font-family="Times,serif" font-size="14.00" fill="#000000">!next()</text>
</g>
<!-- get_number2&#45;&gt;get_number2 -->
<g id="edge7" class="edge">
<title>get_number2-&gt;get_number2</title>
<path fill="none" stroke="#000000" d="M304.5615,-140.4631C302.5576,-149.8495 306.8994,-158.3104 317.5869,-158.3104 324.0996,-158.3104 328.2559,-155.1686 330.0558,-150.59"/>
<polygon fill="#000000" stroke="#000000" points="333.5582,-150.6402 330.6123,-140.4631 326.5688,-150.256 333.5582,-150.6402"/>
<text text-anchor="middle" x="317.5869" y="-162.5104" font-family="Times,serif" font-size="14.00" fill="#000000">next()</text>
</g>
<!-- get_number2&#45;&gt;list -->
<g id="edge10" class="edge">
<title>get_number2-&gt;list</title>
<path fill="none" stroke="#000000" d="M371.6138,-122.3104C403.9972,-122.3104 444.3538,-122.3104 473.2269,-122.3104"/>
<polygon fill="#000000" stroke="#000000" points="473.3088,-125.8105 483.3088,-122.3104 473.3087,-118.8105 473.3088,-125.8105"/>
<text text-anchor="middle" x="427.5273" y="-126.5104" font-family="Times,serif" font-size="14.00" fill="#000000">!next()</text>
</g>
<!-- get_number3&#45;&gt;get_number3 -->
<g id="edge8" class="edge">
<title>get_number3-&gt;get_number3</title>
<path fill="none" stroke="#000000" d="M304.5615,-228.4631C302.5576,-237.8495 306.8994,-246.3104 317.5869,-246.3104 324.0996,-246.3104 328.2559,-243.1686 330.0558,-238.59"/>
<polygon fill="#000000" stroke="#000000" points="333.5582,-238.6402 330.6123,-228.4631 326.5688,-238.256 333.5582,-238.6402"/>
<text text-anchor="middle" x="317.5869" y="-250.5104" font-family="Times,serif" font-size="14.00" fill="#000000">next()</text>
</g>
<!-- get_number3&#45;&gt;list -->
<g id="edge11" class="edge">
<title>get_number3-&gt;list</title>
<path fill="none" stroke="#000000" d="M357.1157,-192.29C391.4495,-176.6378 440.7729,-154.1521 474.1698,-138.9271"/>
<polygon fill="#000000" stroke="#000000" points="475.9173,-141.977 483.5645,-134.6442 473.0136,-135.6077 475.9173,-141.977"/>
<text text-anchor="middle" x="427.5273" y="-172.5104" font-family="Times,serif" font-size="14.00" fill="#000000">!next()</text>
</g>
<!-- list&#45;&gt;return -->
<g id="edge12" class="edge">
<title>list-&gt;return</title>
<path fill="none" stroke="#000000" d="M538.0071,-122.3104C556.1144,-122.3104 580.5236,-122.3104 602.7458,-122.3104"/>
<polygon fill="#000000" stroke="#000000" points="602.7716,-125.8105 612.7716,-122.3104 602.7716,-118.8105 602.7716,-125.8105"/>
</g>
</g>
</svg>