<?xml version="1.0" encoding="UTF-8" standalone="no"?>
<!DOCTYPE svg PUBLIC "-//W3C//DTD SVG 1.1//EN" "http://www.w3.org/Graphics/SVG/1.1/DTD/svg11.dtd">
<!-- Generated by graphviz version 2.40.1 (20161225.0304)
 -->
<!-- Title: ExecutionFlow Pages: 1 -->
<svg width="730pt" height="114pt" viewBox="0.00 0.00 730.03 114.47" xmlns="http://www.w3.org/2000/svg" xmlns:xlink="http://www.w3.org/1999/xlink">
<g id="graph0" class="graph" transform="scale(1 1) rotate(0) translate(4 110.4655)">
<title>ExecutionFlow</title>
<polygon fill="#ffffff" stroke="transparent" points="-4,4 -4,-110.4655 726.0252,-110.4655 726.0252,4 -4,4"/>
<g id="clust1" class="cluster">
<title>cluster_0</title>
<polygon fill="none" stroke="#000000" points="82,-21.4655 82,-98.4655 714.0252,-98.4655 714.0252,-21.4655 82,-21.4655"/>
<text text-anchor="middle" x="398.0126" y="-81.8655" font-family="Arial" font-size="14.00" fill="#000000">get_numbers()</text>
</g>
<!-- caller -->
<g id="node1" class="node">
<title>caller</title>
<polygon fill="#d3d3d3" stroke="#000000" points="54,-65.4655 0,-65.4655 0,-29.4655 54,-29.4655 54,-65.4655"/>
<text text-anchor="middle" x="27" y="-43.2655" font-family="Arial" font-size="14.00" fill="#000000">caller</text>
</g>
<!-- get_number1 -->
<g id="node2" class="node">
<title>get_number1</title>
<polygon fill="#d3d3d3" stroke="#000000" points="197.6909,-65.4655 90.1029,-65.4655 90.1029,-29.4655 197.6909,-29.4655 197.6909,-65.4655"/>
<text text-anchor="middle" x="143.8969" y="-43.2655" font-family="Arial" font-size="14.00" fill="#000000">get_number(1)</text>
</g>
<!-- caller&#45;&gt;get_number1 -->
<g id="edge1" class="edge">
<title>caller-&gt;get_number1</title>
<path fill="none" stroke="#000000" d="M54.1123,-47.4655C61.8549,-47.4655 70.6392,-47.4655 79.6087,-47.4655"/>
<polygon fill="#000000" stroke="#000000" points="79.7687,-50.9656 89.7686,-47.4655 79.7686,-43.9656 79.7687,-50.9656"/>
</g>
<!-- get_number2 -->
<g id="node4" class="node">
<title>get_number2</title>
<polygon fill="#d3d3d3" stroke="#000000" points="341.4847,-65.4655 233.8967,-65.4655 233.8967,-29.4655 341.4847,-29.4655 341.4847,-65.4655"/>
<text text-anchor="middle" x="287.6907" y="-43.2655" font-family="Arial" font-size="14.00" fill="#000000">get_number(2)</text>
</g>
<!-- get_number1&#45;&gt;get_number2 -->
<g id="edge3" class="edge">
<title>get_number1-&gt;get_number2</title>
<path fill="none" stroke="#000000" d="M197.8495,-47.4655C206.1212,-47.4655 214.7315,-47.4655 223.2031,-47.4655"/>
<polygon fill="#000000" stroke="#000000" points="223.4357,-50.9656 233.4357,-47.4655 223.4357,-43.9656 223.4357,-50.9656"/>
</g>
<!-- return -->
<g id="node3" class="node">
<title>return</title>
<polygon fill="#98fb98" stroke="#98fb98" points="705.7998,-65.4655 611.7036,-65.4655 611.7036,-29.4655 705.7998,-29.4655 705.7998,-65.4655"/>
<text text-anchor="middle" x="658.7517" y="-43.2655" font-family="Arial" font-size="14.00" fill="#000000">return list(...)</text>
</g>
<!-- return&#45;&gt;caller -->
<g id="edge2" class="edge">
<title>return-&gt;caller</title>
<path fill="none" stroke="#000000" stroke-dasharray="5,2" d="M611.608,-30.5298C599.9167,-26.7891 587.3374,-23.1469 575.4782,-20.4655 512.5156,-6.2294 496.0364,-1.4655 431.4845,-1.4655 287.6907,-1.4655 287.6907,-1.4655 287.6907,-1.4655 195.8834,-1.4655 170.3768,4.3964 82,-20.4655 75.8178,-22.2046 69.4925,-24.6252 63.4354,-27.3091"/>
<polygon fill="#000000" stroke="#000000" points="61.7375,-24.2405 54.1971,-31.6832 64.733,-30.5671 61.7375,-24.2405"/>
</g>
<!-- get_number3 -->
<g id="node5" class="node">
<title>get_number3</title>
<polygon fill="#d3d3d3" stroke="#000000" points="485.2785,-65.4655 377.6905,-65.4655 377.6905,-29.4655 485.2785,-29.4655 485.2785,-65.4655"/>
<text text-anchor="middle" x="431.4845" y="-43.2655" font-family="Arial" font-size="14.00" fill="#000000">get_number(3)</text>
</g>
<!-- get_number2&#45;&gt;get_number3 -->
<g id="edge4" class="edge">
<title>get_number2-&gt;get_number3</title>
<path fill="none" stroke="#000000" d="M341.6433,-47.4655C349.915,-47.4655 358.5253,-47.4655 366.9969,-47.4655"/>
<polygon fill="#000000" stroke="#000000" points="367.2295,-50.9656 377.2295,-47.4655 367.2295,-43.9656 367.2295,-50.9656"/>
</g>
<!-- list -->
<g id="node6" class="node">
<title>list</title>
<polygon fill="#d3d3d3" stroke="#000000" points="575.5267,-65.4655 521.3329,-65.4655 521.3329,-29.4655 575.5267,-29.4655 575.5267,-65.4655"/>
<text text-anchor="middle" x="548.4298" y="-43.2655" font-family="Arial" font-size="14.00" fill="#000000">list(...)</text>
</g>
<!-- get_number3&#45;&gt;list -->
<g id="edge5" class="edge">
<title>get_number3-&gt;list</title>
<path fill="none" stroke="#000000" d="M485.507,-47.4655C494.0792,-47.4655 502.7797,-47.4655 510.8657,-47.4655"/>
<polygon fill="#000000" stroke="#000000" points="511.0794,-50.9656 521.0794,-47.4655 511.0794,-43.9656 511.0794,-50.9656"/>
</g>
<!-- list&#45;&gt;return -->
<g id="edge6" class="edge">
<title>list-&gt;return</title>
<path fill="none" stroke="#000000" d="M575.7004,-47.4655C583.5816,-47.4655 592.4937,-47.4655 601.4805,-47.4655"/>
<polygon fill="#000000" stroke="#000000" points="601.6078,-50.9656 611.6078,-47.4655 601.6077,-43.9656 601.6078,-50.9656"/>
</g>
</g>
</svg>