<?xml version="1.0" encoding="UTF-8" standalone="no"?>
<!DOCTYPE svg PUBLIC "-//W3C//DTD SVG 1.1//EN" "http://www.w3.org/Graphics/SVG/1.1/DTD/svg11.dtd">
<!-- Generated by graphviz version 2.40.1 (20161225.0304)
 -->
<!-- Title: ExecutionFlow Pages: 1 -->
<svg width="757pt" height="209pt" viewBox="0.00 0.00 756.65 209.00" xmlns="http://www.w3.org/2000/svg" xmlns:xlink="http://www.w3.org/1999/xlink">
<g id="graph0" class="graph" transform="scale(1 1) rotate(0) translate(4 205)">
<title>ExecutionFlow</title>
<polygon fill="#ffffff" stroke="transparent" points="-4,4 -4,-205 752.6522,-205 752.6522,4 -4,4"/>
<g id="clust1" class="cluster">
<title>cluster_0</title>
<polygon fill="none" stroke="#000000" points="83,-8 83,-193 740.6522,-193 740.6522,-8 83,-8"/>
<text text-anchor="middle" x="411.8261" y="-176.4" font-family="Arial" font-size="14.00" fill="#000000">get_numbers()</text>
</g>
<!-- caller -->
<g id="node1" class="node">
<title>caller</title>
<polygon fill="#d3d3d3" stroke="#000000" points="54,-106 0,-106 0,-70 54,-70 54,-106"/>
<text text-anchor="middle" x="27" y="-83.8" font-family="Arial" font-size="14.00" fill="#000000">caller</text>
</g>
<!-- get_numbers -->
<g id="node2" class="node">
<title>get_numbers</title>
<polygon fill="#d3d3d3" stroke="#000000" points="188.5355,-106 91.1545,-106 91.1545,-70 188.5355,-70 188.5355,-106"/>
<text text-anchor="middle" x="139.845" y="-83.8" font-family="Arial" font-size="14.00" fill="#000000">get_numbers</text>
</g>
<!-- caller&#45;&gt;get_numbers -->
<g id="edge1" class="edge">
<title>caller-&gt;get_numbers</title>
<path fill="none" stroke="#000000" d="M54.0292,-88C62.1694,-88 71.4422,-88 80.8111,-88"/>
<polygon fill="#000000" stroke="#000000" points="80.9662,-91.5001 90.9661,-88 80.9661,-84.5001 80.9662,-91.5001"/>
</g>
<!-- get_number1 -->
<g id="node4" class="node">
<title>get_number1</title>
<polygon fill="#add8e6" stroke="#add8e6" points="403.8031,-52 296.2151,-52 296.2151,-16 403.8031,-16 403.8031,-52"/>
<text text-anchor="middle" x="350.0091" y="-29.8" font-family="Arial" font-size="14.00" fill="#000000">get_number(1)</text>
</g>
<!-- get_numbers&#45;&gt;get_number1 -->
<g id="edge3" class="edge">
<title>get_numbers-&gt;get_number1</title>
<path fill="none" stroke="#000000" d="M188.5891,-75.4756C217.5847,-68.0254 254.7054,-58.4875 286.0374,-50.437"/>
<polygon fill="#000000" stroke="#000000" points="287.1746,-53.7586 295.989,-47.88 285.4326,-46.9788 287.1746,-53.7586"/>
<text text-anchor="middle" x="242.4011" y="-69.2" font-family="Times,serif" font-size="14.00" fill="#000000">start()</text>
</g>
<!-- get_number2 -->
<g id="node5" class="node">
<title>get_number2</title>
<polygon fill="#ffa500" stroke="#ffa500" points="403.8031,-106 296.2151,-106 296.2151,-70 403.8031,-70 403.8031,-106"/>
<text text-anchor="middle" x="350.0091" y="-83.8" font-family="Arial" font-size="14.00" fill="#000000">get_number(2)</text>
</g>
<!-- get_numbers&#45;&gt;get_number2 -->
<g id="edge4" class="edge">
<title>get_numbers-&gt;get_number2</title>
<path fill="none" stroke="#000000" d="M188.5891,-88C217.4592,-88 254.3842,-88 285.6301,-88"/>
<polygon fill="#000000" stroke="#000000" points="285.989,-91.5001 295.989,-88 285.989,-84.5001 285.989,-91.5001"/>
<text text-anchor="middle" x="242.4011" y="-92.2" font-family="Times,serif" font-size="14.00" fill="#000000">start()</text>
</g>
<!-- get_number3 -->
<g id="node6" class="node">
<title>get_number3</title>
<polygon fill="#ffc0cb" stroke="#ffc0cb" points="403.8031,-160 296.2151,-160 296.2151,-124 403.8031,-124 403.8031,-160"/>
<text text-anchor="middle" x="350.0091" y="-137.8" font-family="Arial" font-size="14.00" fill="#000000">get_number(3)</text>
</g>
<!-- get_numbers&#45;&gt;get_number3 -->
<g id="edge5" class="edge">
<title>get_numbers-&gt;get_number3</title>
<path fill="none" stroke="#000000" d="M188.5891,-100.5244C217.5847,-107.9746 254.7054,-117.5125 286.0374,-125.563"/>
<polygon fill="#000000" stroke="#000000" points="285.4326,-129.0212 295.989,-128.12 287.1746,-122.2414 285.4326,-129.0212"/>
<text text-anchor="middle" x="242.4011" y="-122.2" font-family="Times,serif" font-size="14.00" fill="#000000">start()</text>
</g>
<!-- return -->
<g id="node3" class="node">
<title>return</title>
<polygon fill="#98fb98" stroke="#98fb98" points="732.4268,-106 638.3306,-106 638.3306,-70 732.4268,-70 732.4268,-106"/>
<text text-anchor="middle" x="685.3787" y="-83.8" font-family="Arial" font-size="14.00" fill="#000000">return list(...)</text>
</g>
<!-- return&#45;&gt;caller -->
<g id="edge2" class="edge">
<title>return-&gt;caller</title>
<path fill="none" stroke="#000000" stroke-dasharray="5,2" d="M637.9582,-69.9163C582.7183,-49.9 488.2451,-18.8939 403.906,-7 356.4671,-.3099 343.6522,-1.0707 296.1122,-7 199.1535,-19.093 174.8291,-27.6137 83,-61 76.5255,-63.3539 69.7983,-66.2125 63.347,-69.1778"/>
<polygon fill="#000000" stroke="#000000" points="61.6799,-66.0949 54.1539,-73.5521 64.6876,-72.4158 61.6799,-66.0949"/>
</g>
<!-- list -->
<g id="node7" class="node">
<title>list</title>
<polygon fill="#d3d3d3" stroke="#000000" points="563.1537,-106 508.9599,-106 508.9599,-70 563.1537,-70 563.1537,-106"/>
<text text-anchor="middle" x="536.0568" y="-83.8" font-family="Arial" font-size="14.00" fill="#000000">list(...)</text>
</g>
<!-- get_number1&#45;&gt;list -->
<g id="edge6" class="edge">
<title>get_number1-&gt;list</title>
<path fill="none" stroke="#000000" d="M403.9173,-48.0692C425.1959,-53.7792 449.8164,-60.5812 472.0084,-67.2 480.7996,-69.822 490.2191,-72.7909 499.0557,-75.6476"/>
<polygon fill="#000000" stroke="#000000" points="498.1278,-79.0264 508.7203,-78.8008 500.2991,-72.3716 498.1278,-79.0264"/>
<text text-anchor="middle" x="456.4572" y="-71.2" font-family="Times,serif" font-size="14.00" fill="#000000">join()</text>
</g>
<!-- get_number2&#45;&gt;list -->
<g id="edge7" class="edge">
<title>get_number2-&gt;list</title>
<path fill="none" stroke="#000000" d="M403.8218,-88C434.234,-88 471.4901,-88 498.6977,-88"/>
<polygon fill="#000000" stroke="#000000" points="498.9619,-91.5001 508.9619,-88 498.9619,-84.5001 498.9619,-91.5001"/>
<text text-anchor="middle" x="456.4572" y="-92.2" font-family="Times,serif" font-size="14.00" fill="#000000">join()</text>
</g>
<!-- get_number3&#45;&gt;list -->
<g id="edge8" class="edge">
<title>get_number3-&gt;list</title>
<path fill="none" stroke="#000000" d="M403.9313,-128.069C425.2117,-122.4005 449.8299,-115.6305 472.0084,-109 480.806,-106.3699 490.228,-103.3791 499.0649,-100.4958"/>
<polygon fill="#000000" stroke="#000000" points="500.3269,-103.7652 508.7291,-97.3112 498.136,-97.1168 500.3269,-103.7652"/>
<text text-anchor="middle" x="456.4572" y="-121.2" font-family="Times,serif" font-size="14.00" fill="#000000">join()</text>
</g>
<!-- list&#45;&gt;return -->
<g id="edge9" class="edge">
<title>list-&gt;return</title>
<path fill="none" stroke="#000000" d="M563.4447,-88C581.552,-88 605.9612,-88 628.1834,-88"/>
<polygon fill="#000000" stroke="#000000" points="628.2092,-91.5001 638.2092,-88 628.2092,-84.5001 628.2092,-91.5001"/>
</g>
</g>
</svg>